<?xml version="1.0" encoding="utf-8"?>
<!-- Generator: Adobe Illustrator 16.0.0, SVG Export Plug-In . SVG Version: 6.00 Build 0)  -->
<!DOCTYPE svg PUBLIC "-//W3C//DTD SVG 1.1//EN" "http://www.w3.org/Graphics/SVG/1.1/DTD/svg11.dtd">
<svg version="1.1" id="Layer_1" xmlns="http://www.w3.org/2000/svg" xmlns:xlink="http://www.w3.org/1999/xlink" x="0px" y="0px"
	 width="461.201px" height="497.81px" viewBox="0 0 461.201 497.81" enable-background="new 0 0 461.201 497.81"
	 xml:space="preserve">
<path d="M433.653,153.81H28.347C12.691,153.81,0,166.501,0,182.157l43,287.307c0,15.655,12.691,28.347,28.347,28.347h319.307
	c15.654,0,28.346-12.691,28.346-28.347l43-287.307C461.999,166.501,449.308,153.81,433.653,153.81z M386.666,466.144h-313
	l-41-280.999h396L386.666,466.144z"/>
<path d="M110.177,133.051c-0.098-2.482-1.974-61.227,35.44-100.149c21-21.847,49.727-32.924,85.382-32.924L231.807,0
	c1.133,0.063,28.053,1.746,54.882,19.04c24.853,16.02,54.478,48.704,54.478,113.438h-29c0-94.748-74.959-102.958-81.67-103.499
	c-27.15,0.099-48.631,8.136-63.85,23.894c-28.858,29.882-27.507,78.578-27.491,79.066L110.177,133.051z"/>
<circle cx="129.234" cy="265.243" r="20.599"/>
<circle cx="331.234" cy="265.243" r="20.599"/>
</svg>
