<?xml version="1.0" encoding="utf-8"?>
<!-- Generator: Adobe Illustrator 16.0.0, SVG Export Plug-In . SVG Version: 6.00 Build 0)  -->
<!DOCTYPE svg PUBLIC "-//W3C//DTD SVG 1.1//EN" "http://www.w3.org/Graphics/SVG/1.1/DTD/svg11.dtd">
<svg version="1.1" id="Layer_1" xmlns="http://www.w3.org/2000/svg" xmlns:xlink="http://www.w3.org/1999/xlink" x="0px" y="0px"
	 width="360px" height="460.375px" viewBox="0 0 360 460.375" enable-background="new 0 0 360 460.375" xml:space="preserve">
<path d="M126.299,396.195L126.299,396.195l24.158,28.869l0,0L180,460.375l30.395-36.328c0,0,0,0,0,0l24.778-29.611h0l82.135-98.158
	C344.84,263.816,360,222.52,360,180C360,80.746,279.254,0,180,0S0,80.746,0,180c0,42.5,15.148,83.781,42.656,116.238
	L126.299,396.195z M180,30c82.711,0,150,67.289,150,150c0,35.422-12.633,69.824-35.637,96.949L180,413.625l-114.43-136.75
	C42.633,249.824,30,215.422,30,180C30,97.289,97.289,30,180,30z"/>
</svg>
